<svg display="none" xmlns="http://www.w3.org/2000/svg">
    <symbol id="user" viewBox="0 0 24 24">
        <g clip-path="url(#clip0_1104_275)">
<path d="M12 10.889C13.0172 10.889 14.0115 10.6283 14.8573 10.1399C15.703 9.65156 16.3622 8.95743 16.7514 8.14531C17.1407 7.33319 17.2425 6.43955 17.0441 5.57741C16.8456 4.71526 16.3558 3.92333 15.6366 3.30176C14.9173 2.68019 14.001 2.25689 13.0034 2.0854C12.0057 1.91391 10.9717 2.00193 10.0319 2.33832C9.09221 2.67471 8.28901 3.24437 7.72391 3.97526C7.1588 4.70615 6.85718 5.56545 6.85718 6.44448C6.85718 7.62323 7.39901 8.7537 8.36349 9.5872C9.32796 10.4207 10.6361 10.889 12 10.889Z" fill="#6F6567"/>
<path d="M19.7143 22C20.0553 22 20.3823 21.883 20.6234 21.6746C20.8645 21.4662 21 21.1836 21 20.8889C21 18.8261 20.0518 16.8478 18.364 15.3892C16.6761 13.9305 14.3869 13.1111 12 13.1111C9.61305 13.1111 7.32387 13.9305 5.63604 15.3892C3.94821 16.8478 3 18.8261 3 20.8889C3 21.1836 3.13546 21.4662 3.37658 21.6746C3.6177 21.883 3.94472 22 4.28571 22H19.7143Z" fill="#6F6567"/>
</g>
    </symbol>
</svg>
