<svg display="none" xmlns="http://www.w3.org/2000/svg">
    <symbol id="marker" viewBox="0 0 28 21">
        <path d="M10.4332 20.9998C10.2047 20.9991 9.97877 20.9514 9.76947 20.8596C9.56016 20.7679 9.37197 20.6341 9.21657 20.4665L1.11657 11.8498C0.813777 11.5272 0.651574 11.0974 0.665639 10.6552C0.679704 10.2129 0.868886 9.79431 1.19157 9.49152C1.51425 9.18873 1.94399 9.02652 2.38627 9.04059C2.82854 9.05466 3.24711 9.24384 3.5499 9.56652L10.4166 16.8832L24.4332 1.54985C24.5755 1.37272 24.7524 1.22654 24.9532 1.12029C25.154 1.01404 25.3744 0.949957 25.6009 0.931983C25.8273 0.914009 26.0551 0.942522 26.2701 1.01577C26.4852 1.08902 26.683 1.20545 26.8514 1.35793C27.0198 1.5104 27.1552 1.69569 27.2494 1.90242C27.3436 2.10915 27.3945 2.33295 27.3991 2.56008C27.4036 2.78721 27.3617 3.01287 27.2758 3.2232C27.19 3.43353 27.0621 3.6241 26.8999 3.78318L11.6666 20.4498C11.5126 20.6204 11.3251 20.7574 11.1157 20.852C10.9063 20.9467 10.6797 20.997 10.4499 20.9998H10.4332Z" fill="#822740"/>
    </symbol>
</svg>
