<svg version="1.0" xmlns="http://www.w3.org/2000/svg" width="1344" height="1344" viewBox="0 0 1008 1008"><path d="M230 598.9c-7.5 2.2-10.8 4.2-15.6 9.3-6 6.3-7.9 9.5-10.4 17.3-2.6 7.9-3.4 22.9-1.8 31.1.5 2.7 1.2 6 1.4 7.4 1.1 5.3 6 13.6 11.4 18.9 7.8 7.8 16.2 11 27.5 10.6 4.4-.1 9.1-.5 10.4-.8 4.2-1.1 11-4.8 14.2-7.8 1.7-1.6 3.4-2.9 3.8-2.9.8 0 6.2-9.5 8-14 2.6-6.8 3.8-15.1 3.6-24.2-.3-11.6-1-15.7-4.5-23.5-4.9-10.7-14.9-19.3-26.1-22.1-5.5-1.4-15.8-1.1-21.9.7zm22.1 11.4c15.3 6.4 21.8 26.5 16.5 50.6-.9 4.2-5.7 12.3-8.8 15-5.5 4.7-11.4 6.8-18.2 6.6-19.7-.6-30.5-18.7-27.3-45.9 2-17.1 13.9-28.7 28.7-28.1 3 .1 7.1.9 9.1 1.8zM657.7 599c-3.2 1-6.4 2.4-7.2 3-.8.7-1.5 1-1.5.6 0-.3-1 .2-2.1 1.2-12.2 10-16.9 20.4-17.4 38.9-.8 26.1 8.1 41.5 29 49.8 3.6 1.4 18.7 1.3 23-.2 7.4-2.5 10.4-4.3 15.4-9.2 8.7-8.5 13.2-20.5 13.6-36.1.5-24.1-8.5-40.2-26.5-47.5-6.5-2.6-19-2.8-26.3-.5zm22.4 11.3c8.1 3.4 14.6 11.9 16.9 22.4 1.1 4.6 1.5 19.1.7 22.3-.2.8-.7 3.1-1.1 5-3.1 13.1-12.8 21.7-25.5 22.5-12.2.7-22.7-7.1-26.9-20-2.7-8.4-3.3-19.4-1.6-28.7 1.4-7.3 2.3-9.3 7.2-15.6 7.1-9 19.8-12.3 30.3-7.9zM74.3 645.5V692h12.2v-41.5h36.9l.1-5.5v-5.5h-37l-.1-14.6-.1-14.6h41.2l.1-5.7V599H74.3v46.5zm68.6-40.3c-.2 19.6.1 86.2.4 86.5.3.2 38.8.5 49.8.3 2.4 0 2.6-.4 2.7-4.3.1-7.7 1.4-7.3-20.5-7.2h-19.8l-.3-40.8-.2-40.7h-12l-.1 6.2zm149-5.5c-.2 1-.5-.1 5.3 20.8 2.7 9.9 6.1 22.3 7.4 27.5 1.4 5.2 3.4 12.6 4.5 16.5 2.1 7.2 2.6 9.3 3.3 12.2 1.2 5.2 3.9 13.9 4.6 14.7 1.3 1.4 15.2 1 16-.5.7-1 3.1-11.8 3.1-13.4 0-.2.6-2.3 1.4-4.5.8-2.2 1.4-4.1 1.3-4.3-.1-.2.4-2.9 1.6-9.2.2-1.1.9-3.8 1.4-6 .6-2.2 1.4-5.2 1.7-6.8.3-1.5.7-3.8 1-5.2.3-1.4.7-3.7 1-5.3.3-1.5 1.3-6.9 2.2-12 .9-5.1 1.8-9.1 1.9-8.9.4.3 1.9 7.8 2.9 14.2.3 1.6.7 4.1 1 5.5.3 1.4.7 3.8 1 5.5.2 1.6 1.6 7.9 3 14 2.2 9.3 4.1 18 7.1 31.5.3 1.4.7 3 .8 3.7.3 2 .8 2.1 9.1 2.4l8 .2 1.2-4.4c.8-2.4 1.5-5.3 1.8-6.4.3-1.1 1.6-5.8 2.9-10.5 1.3-4.7 3.5-12.6 4.9-17.5 9.3-33.4 14.8-52.9 15.3-53.6.3-.5-2.6-.9-6.3-.9h-6.9l-4.8 19.7c-6.9 28.4-9.3 38-11.1 44.8-2 7.5-2.4 9.3-3.1 13-1.2 7-2 5.4-5-10-.2-1.1-.8-4.3-1.4-7.1-.6-2.8-1.3-6.3-1.6-7.8-.2-1.6-1.1-5.6-1.9-9-.8-3.3-1.6-7.2-1.9-8.6-.2-1.4-1-5-1.6-8-.6-3-1.3-6.9-1.6-8.5-.7-3.4-.8-3.8-1.9-8-.7-2.6-1-4.6-1.4-9.3-.1-.8-2.4-1.2-8.1-1.2h-7.9l-1.1 4.1c-.6 2.2-1.3 5.2-1.5 6.7-.2 1.5-.6 3.6-.9 4.7-1.2 4.9-11.7 56.3-12 59-.3 1.6-.9 4.1-1.4 5.5l-1 2.5-.7-3c-.4-1.7-2.1-8.4-3.7-15-1.7-6.6-3.2-12.8-3.4-13.8-.2-1-.6-2.7-.9-3.7-.3-1-.8-2.7-1-3.7-.2-1-.9-4.1-1.5-6.8-.6-2.8-1.3-5.7-1.5-6.5-.1-.8-.8-3.5-1.5-6s-1.4-5.4-1.6-6.5c-.2-1.1-1.1-5.5-2-9.8l-1.8-7.7h-6.3c-3.5 0-6.4.3-6.4.7zm129.4 45.5v46.3l20.6.5c11.3.3 24.2.4 28.7.2l8.1-.3.1-5.5c0-4.4-.3-5.4-1.6-5.5-.9-.1-11.1-.2-22.7-.3l-21-.1v-15.7l-.1-15.7 19.7.1c10.8 0 20.1-.2 20.6-.5s.9-2.7.8-5.4v-4.8L454 638l-20.5-.5-.1-13.7v-13.6l22 .1h22l.3-5.6.4-5.7h-56.7l-.1 46.2zm72.6-44.5c-.1 2.3-.1 89.5 0 90.5.1.5 2.7.8 5.9.8h5.9l-.1-18.1c-.1-9.9.2-18.5.5-19s3.9-.8 7.9-.7l7.4.3 10.8 18c5.9 9.9 11.6 18.4 12.6 19 1 .5 4.6.8 8 .7l6.1-.4-1.9-2.6c-1-1.5-6.4-9.9-12-18.7-5.6-8.8-11.2-16.8-12.3-17.7-1.3-1-1.7-1.8-.9-1.8 2.4 0 10-5.9 12.2-9.5 3.1-4.9 4.7-11.9 4.5-19.1-.4-11.3-7.3-19.7-18.5-22.3-2.5-.6-11.6-1.1-20.2-1.1-14.4 0-15.8.2-15.9 1.7zm36 11.9c5.6 3.3 7.6 11.1 5.2 20-1.2 4.5-4.1 7.7-8.4 9.3-4.1 1.6-20.4 1.4-20.9-.2-.3-1-.2-28.7.1-30.8.1-.4 4.8-.6 10.5-.4 7.9.2 11.1.7 13.5 2.1zm41-11.4c-.3 9.3-.1 89.9.3 90.3.4.4 24.9.7 46.4.5h6.2l-.2-5.8-.2-5.7h-19.6c-10.8 0-19.9-.3-20.2-.6-.4-.3-.7-18.7-.7-40.8V599H577c-5.5 0-6 .2-6.1 2.2zm148.1-1.9c0 .1 1.1 3.6 2.4 7.7 1.3 4.1 4.2 13.6 6.6 21 2.3 7.4 5.4 17.5 7 22.5 1.6 4.9 5.2 16.3 8 25.3l5.1 16.3 8.1-.3c7.7-.3 8.2-.4 8.9-2.8.4-1.4 2.2-7 3.9-12.5 1.8-5.5 3.3-10.5 3.4-11 .4-1.7 6.6-21.5 9.3-29.5 1.3-4.1 2.6-8.4 2.9-9.5.2-1.1.8-3.1 1.3-4.5s2.2-6.6 3.7-11.5c1.4-5 2.9-9.6 3.1-10.3.4-.9-1.3-1.2-6.4-1.2h-6.9l-1.4 4.7c-.8 2.7-1.5 5.3-1.6 5.9-.1.6-2.1 7.6-4.4 15.5-2.3 7.9-4.3 14.8-4.5 15.4-.9 4.2-1.9 7.2-2.8 8.2-.5.7-.7 1.3-.4 1.3.3 0-.3 3-1.4 6.7-1.1 3.8-2.1 7.7-2.4 8.8-1 4.7-3.3 12.4-4.1 13.6-.6 1-4.9-11.4-6.8-20.1-.8-3.1-2.8-10.6-3.7-13.5-.5-1.7-2.3-8-3.9-14-1.7-6.1-3.5-12.1-4.1-13.5-.5-1.4-1.1-3.4-1.4-4.5-.2-1.1-1.2-4.8-2.1-8.3l-1.6-6.2h-6.9c-3.8 0-6.9.1-6.9.3zm86.7.4c-.6 1.3-.2 91.1.4 91.7.3.4 13.1.7 28.5.7l27.9.1.3-5.3c.2-2.9-.1-5.5-.6-5.8-.6-.3-10.7-.6-22.6-.5-14.5 0-21.6-.3-21.9-1-.2-.6-.3-7.6-.2-15.6l.1-14.5 13.4-.2c7.4-.1 16.7-.2 20.6-.2l7.1-.1-.1-5.3-.1-5.2-20.5-.5-20.4-.5-.1-13.5v-13.5l21-.2c11.6-.1 21.6-.2 22.3-.2.8-.1 1.2-1.9 1.2-5.6V599h-27.9c-15.4 0-28.2.3-28.4.7zm72.3 45.6v46.5l6 .4 6 .3v-38.4h7.8l7.7.1 11.3 18.8c6.3 10.4 12.1 19 12.9 19.2.8.2 4.1.1 7.3 0l5.8-.4-9-14.1c-4.9-7.8-9.5-15.1-10.1-16.2-.7-1.1-2.6-3.8-4.4-6.1l-3.2-4.1 3.7-1.9c4.3-2.3 10.7-10.4 11.7-14.8 3.6-16.5-.6-27.5-12.5-33-3.9-1.8-6.9-2.1-22.7-2.4l-18.3-.4v46.5zm35.8-32.8c4.4 2.2 6.6 6.7 6.6 13.6-.1 6.3-2.2 10.9-6.7 14.3-2.4 1.8-4.6 2.2-13.3 2.4l-10.4.4v-15.9c0-8.8.3-16.2.6-16.6 1.3-1.3 19.9.2 23.2 1.8z"/></svg>