<?xml version="1.0" standalone="no"?>
<!DOCTYPE svg PUBLIC "-//W3C//DTD SVG 20010904//EN"
 "http://www.w3.org/TR/2001/REC-SVG-20010904/DTD/svg10.dtd">
<svg version="1.0" xmlns="http://www.w3.org/2000/svg"
 width="1008.000000pt" height="1008.000000pt" viewBox="0 0 1008.000000 1008.000000"
 preserveAspectRatio="xMidYMid meet">
<metadata>
Created by potrace 1.14, written by Peter Selinger 2001-2017
</metadata>
<g transform="translate(0.000000,1008.000000) scale(0.100000,-0.100000)"
fill="#000000" stroke="none">
<path d="M2300 4091 c-75 -22 -108 -42 -156 -93 -60 -63 -79 -95 -104 -173
-26 -79 -34 -229 -18 -311 5 -27 12 -60 14 -74 11 -53 60 -136 114 -189 78
-78 162 -110 275 -106 44 1 91 5 104 8 42 11 110 48 142 78 17 16 34 29 38 29
8 0 62 95 80 140 26 68 38 151 36 242 -3 116 -10 157 -45 235 -49 107 -149
193 -261 221 -55 14 -158 11 -219 -7z m221 -114 c153 -64 218 -265 165 -506
-9 -42 -57 -123 -88 -150 -55 -47 -114 -68 -182 -66 -197 6 -305 187 -273 459
20 171 139 287 287 281 30 -1 71 -9 91 -18z"/>
<path d="M6577 4090 c-32 -10 -64 -24 -72 -30 -8 -7 -15 -10 -15 -6 0 3 -10
-2 -21 -12 -122 -100 -169 -204 -174 -389 -8 -261 81 -415 290 -498 36 -14
187 -13 230 2 74 25 104 43 154 92 87 85 132 205 136 361 5 241 -85 402 -265
475 -65 26 -190 28 -263 5z m224 -113 c81 -34 146 -119 169 -224 11 -46 15
-191 7 -223 -2 -8 -7 -31 -11 -50 -31 -131 -128 -217 -255 -225 -122 -7 -227
71 -269 200 -27 84 -33 194 -16 287 14 73 23 93 72 156 71 90 198 123 303 79z"/>
<path d="M743 3625 l0 -465 61 0 61 0 0 208 0 207 185 0 184 0 1 55 0 55 -185
0 -185 0 -1 146 -1 146 206 0 206 0 1 57 0 56 -266 0 -267 0 0 -465z"/>
<path d="M1429 4028 c-2 -196 1 -862 4 -865 3 -2 388 -5 498 -3 24 0 26 4 27
43 1 77 14 73 -205 72 l-198 0 -3 408 -2 407 -60 0 -60 0 -1 -62z"/>
<path d="M2919 4083 c-2 -10 -5 1 53 -208 27 -99 61 -223 74 -275 14 -52 34
-126 45 -165 21 -72 26 -93 33 -122 12 -52 39 -139 46 -147 13 -14 152 -10
160 5 7 10 31 118 31 134 0 2 6 23 14 45 8 22 14 41 13 43 -1 2 4 29 16 92 2
11 9 38 14 60 6 22 14 52 17 68 3 15 7 38 10 52 3 14 7 37 10 53 3 15 13 69
22 120 9 51 18 91 19 89 4 -3 19 -78 29 -142 3 -16 7 -41 10 -55 3 -14 7 -38
10 -55 2 -16 16 -79 30 -140 22 -93 41 -180 71 -315 3 -14 7 -30 8 -37 3 -20
8 -21 91 -24 l80 -2 12 44 c8 24 15 53 18 64 3 11 16 58 29 105 13 47 35 126
49 175 93 334 148 529 153 536 3 5 -26 9 -63 9 l-69 0 -48 -197 c-69 -284 -93
-380 -111 -448 -20 -75 -24 -93 -31 -130 -12 -70 -20 -54 -50 100 -2 11 -8 43
-14 71 -6 28 -13 63 -16 78 -2 16 -11 56 -19 90 -8 33 -16 72 -19 86 -2 14
-10 50 -16 80 -6 30 -13 69 -16 85 -7 34 -8 38 -19 80 -7 26 -10 46 -14 93 -1
8 -24 12 -81 12 l-79 0 -11 -41 c-6 -22 -13 -52 -15 -67 -2 -15 -6 -36 -9 -47
-12 -49 -117 -563 -120 -590 -3 -16 -9 -41 -14 -55 l-10 -25 -7 30 c-4 17 -21
84 -37 150 -17 66 -32 128 -34 138 -2 10 -6 27 -9 37 -3 10 -8 27 -10 37 -2
10 -9 41 -15 68 -6 28 -13 57 -15 65 -1 8 -8 35 -15 60 -7 25 -14 54 -16 65
-2 11 -11 55 -20 98 l-18 77 -63 0 c-35 0 -64 -3 -64 -7z"/>
<path d="M4213 3628 l0 -463 206 -5 c113 -3 242 -4 287 -2 l81 3 1 55 c0 44
-3 54 -16 55 -9 1 -111 2 -227 3 l-210 1 0 157 -1 157 197 -1 c108 0 201 2
206 5 5 3 9 27 8 54 l0 48 -205 5 -205 5 -1 137 0 136 220 -1 220 0 3 56 4 57
-284 0 -283 0 -1 -462z"/>
<path d="M4939 4073 c-1 -23 -1 -895 0 -905 1 -5 27 -8 59 -8 l59 0 -1 181
c-1 99 2 185 5 190 3 5 39 8 79 7 l74 -3 108 -180 c59 -99 116 -184 126 -190
10 -5 46 -8 80 -7 l61 4 -19 26 c-10 15 -64 99 -120 187 -56 88 -112 168 -123
177 -13 10 -17 18 -9 18 24 0 100 59 122 95 31 49 47 119 45 191 -4 113 -73
197 -185 223 -25 6 -116 11 -202 11 -144 0 -158 -2 -159 -17z m360 -119 c56
-33 76 -111 52 -200 -12 -45 -41 -77 -84 -93 -41 -16 -204 -14 -209 2 -3 10
-2 287 1 308 1 4 48 6 105 4 79 -2 111 -7 135 -21z"/>
<path d="M5709 4068 c-3 -93 -1 -899 3 -903 4 -4 249 -7 464 -5 l62 0 -2 58
-2 57 -196 0 c-108 0 -199 3 -202 6 -4 3 -7 187 -7 408 l0 401 -59 0 c-55 0
-60 -2 -61 -22z"/>
<path d="M7190 4087 c0 -1 11 -36 24 -77 13 -41 42 -136 66 -210 23 -74 54
-175 70 -225 16 -49 52 -163 80 -253 l51 -163 81 3 c77 3 82 4 89 28 4 14 22
70 39 125 18 55 33 105 34 110 4 17 66 215 93 295 13 41 26 84 29 95 2 11 8
31 13 45 5 14 22 66 37 115 14 50 29 96 31 103 4 9 -13 12 -64 12 l-69 0 -14
-47 c-8 -27 -15 -53 -16 -59 -1 -6 -21 -76 -44 -155 -23 -79 -43 -148 -45
-154 -9 -42 -19 -72 -28 -82 -5 -7 -7 -13 -4 -13 3 0 -3 -30 -14 -67 -11 -38
-21 -77 -24 -88 -10 -47 -33 -124 -41 -136 -6 -10 -49 114 -68 201 -8 31 -28
106 -37 135 -5 17 -23 80 -39 140 -17 61 -35 121 -41 135 -5 14 -11 34 -14 45
-2 11 -12 48 -21 83 l-16 62 -69 0 c-38 0 -69 -1 -69 -3z"/>
<path d="M8057 4083 c-6 -13 -2 -911 4 -917 3 -4 131 -7 285 -7 l279 -1 3 53
c2 29 -1 55 -6 58 -6 3 -107 6 -226 5 -145 0 -216 3 -219 10 -2 6 -3 76 -2
156 l1 145 134 2 c74 1 167 2 206 2 l71 1 -1 53 -1 52 -205 5 -204 5 -1 135 0
135 210 2 c116 1 216 2 223 2 8 1 12 19 12 56 l0 55 -279 0 c-154 0 -282 -3
-284 -7z"/>
<path d="M8780 3627 l0 -465 60 -4 60 -3 0 192 0 192 78 0 77 -1 113 -188 c63
-104 121 -190 129 -192 8 -2 41 -1 73 0 l58 4 -90 141 c-49 78 -95 151 -101
162 -7 11 -26 38 -44 61 l-32 41 37 19 c43 23 107 104 117 148 36 165 -6 275
-125 330 -39 18 -69 21 -227 24 l-183 4 0 -465z m358 328 c44 -22 66 -67 66
-136 -1 -63 -22 -109 -67 -143 -24 -18 -46 -22 -133 -24 l-104 -4 0 159 c0 88
3 162 6 166 13 13 199 -2 232 -18z"/>
</g>
</svg>
