<svg width="30" height="26" fill="none" xmlns="http://www.w3.org/2000/svg"><path d="M26.266 2.945C23.258.43 18.828.813 16.039 3.711L15 4.805 13.906 3.71C11.664 1.414 7.18-.008 3.68 2.945.234 5.898.07 11.148 3.133 14.32l10.61 10.938c.327.328.765.492 1.202.492.492 0 .93-.164 1.258-.492l10.61-10.938c3.062-3.172 2.898-8.422-.547-11.375zm-.711 10.172L15 24.055 4.39 13.117c-2.077-2.187-2.515-6.289.438-8.805 3.008-2.57 6.508-.71 7.82.602L15 7.32l2.297-2.406c1.258-1.312 4.812-3.172 7.82-.601 2.953 2.515 2.516 6.617.438 8.804z" fill="currentColor"/></svg>